<?xml version="1.0" ?><svg id="Layer_1" style="enable-background:new 0 0 512 512;" version="1.1" viewBox="0 0 512 512" xml:space="preserve" xmlns="http://www.w3.org/2000/svg" xmlns:xlink="http://www.w3.org/1999/xlink"><style type="text/css">
	.st0{fill:#DB3429;}
	.st1{fill:#B3271E;}
	.st2{fill:#EF917B;}
	.st3{fill:#F7C9AB;}
	.st4{fill:#EBEAE0;}
	.st5{fill:#F3AB7D;}
	.st6{fill:#F5F4EF;}
	.st7{fill:#E96B4E;}
	.st8{fill:#B24E10;}
	.st9{fill-rule:evenodd;clip-rule:evenodd;fill:#B24E10;}
	.st10{fill:#57130F;}
</style><g id="XMLID_1_"><g id="XMLID_10_"><path class="st0" d="M361.1,360c0,0,23.8-6.1,32.3-28c11-28.7-12.3-51-12.3-51s38-17.3,38-69.4    c0-35.7-32-55.6-32-55.6s21.3-15.8,13-46.8c-6.5-24.2-35-29.5-35-29.5s3.7-28.7-19-46c-22.7-17.3-62,1.3-62,1.3S267,5,230,5    c-37,0-49,30-49,30s-34.5-1-50,22.5c-15.5,23.5,2.5,51,2.5,51S93,126.3,93,159s20.7,59.3,20.7,59.3S93,234,100.3,265.1    c7.3,31.2,43.2,37.9,43.2,37.9s-29,26.3,7.4,57H361.1L361.1,360z" id="XMLID_4838_"/><path class="st1" d="M131,191c0,48,25.2,48.7,25.2,48.7s-19,41.6,26.5,59.6c0,0,19.7,48.3,73.3,48.3    c53.7,0,66-51.3,66-51.3s42-6.5,29-54.5c0,0,30-4.8,30-50.8H131L131,191z" id="XMLID_4837_"/><path class="st2" d="M286,287h-60v38l-98.4,45.8c-21.1,9.9-34.6,31.1-34.6,54.4V507h326v-81.8    c0-23.3-13.5-44.5-34.6-54.4L286,325V287L286,287z" id="XMLID_4836_"/><path class="st3" d="M322,341.8c0,0-24.3,27.9-66,27.9s-66-27.9-66-27.9l36-16.8v-38h60v38L322,341.8L322,341.8z    " id="XMLID_4835_"/><path class="st4" d="M256,369.7l-32,33.8c-49-15-48.1-55.2-48.1-55.2l14.1-6.6C190,341.8,214.3,369.7,256,369.7" id="XMLID_4834_"/><path class="st4" d="M288,403.5l-32-33.8c41.7,0,66-27.9,66-27.9l14.1,6.6C336.1,348.3,337,388.5,288,403.5" id="XMLID_4833_"/><path class="st3" d="M169,226c-25.5,0-38-16.8-38-34.9s26.1-21.1,30-21.1L169,226L169,226z" id="XMLID_4832_"/><path class="st5" d="M166.8,210.8L143.5,187c0,0-3.1,34.1,25.5,39L166.8,210.8L166.8,210.8z" id="XMLID_4831_"/><path class="st3" d="M343,226c25.5,0,38-16.8,38-34.9S354.9,170,351,170L343,226L343,226z" id="XMLID_4830_"/><path class="st5" d="M345.2,210.8l23.3-23.8c0,0,3.1,34.1-25.5,39L345.2,210.8L345.2,210.8z" id="XMLID_4829_"/><path class="st5" d="M286,316.3V287h-60v29.3c16.2,7.8,30,11.7,30,11.7S269.8,324.1,286,316.3" id="XMLID_4828_"/><path class="st3" d="M351,170c0,0-3.4,67.8-24,95.7C306,294,256,308,256,308s-50-14-71-42.3    c-20.6-27.8-24-95.7-24-95.7c44,0,121-78,121-78S316,170,351,170" id="XMLID_4827_"/><path class="st5" d="M278,120c0,0,23.1,50,73,50c-35,0-69-78-69-78s-77,78-121,78C215.7,170,265.7,142.7,278,120    " id="XMLID_4826_"/><path class="st6" d="M194,187c2.7-1.9,9.2-5.9,18-6c9-0.1,15.3,4.8,18,5.8l4,12.2h-28    C199.4,199,194,193.6,194,187" id="XMLID_4825_"/><path class="st6" d="M318,187c-2.7-1.9-9.2-5.9-18-6c-9-0.1-15.3,4.8-18,5.8l-4,12.2h28    C312.6,199,318,193.6,318,187" id="XMLID_4824_"/><path class="st7" d="M256,262.1c-18.6,0-29.7-11.4-31.7-13.7l7.5-6.7c1,1.1,9.7,10.3,24.3,10.3    c0.1,0,0.2,0,0.3,0c14.1-0.1,22.4-8.6,23.9-10.3l7.5,6.7c-2,2.3-13,13.5-31.3,13.7C256.3,262.1,256.1,262.1,256,262.1" id="XMLID_4823_"/><path class="st8" d="M192.5,161.3l-5.1-8.6c5.2-3.1,13.6-6.7,24.5-6.7c0.1,0,0.2,0,0.3,0    c10.8,0.1,19.1,3.7,24.3,6.7l-5.1,8.6c-4.1-2.4-10.7-5.3-19.2-5.3C203.4,155.9,196.7,158.9,192.5,161.3" id="XMLID_4822_"/><polygon class="st9" id="XMLID_4821_" points="204,181 214,181 214,199 204,199 204,181   "/><polygon class="st9" id="XMLID_4820_" points="210,181 220,181 220,199 210,199 210,181   "/><path class="st8" d="M194,192h-4v-10h2.5c6-3.9,12.7-6,19.5-6c8.2,0,14.2,3.2,17.9,5.1c0.7,0.4,1.6,0.8,1.9,0.9    l-3.4,9.4c-1-0.4-2-0.9-3.2-1.5c-3.1-1.7-7.4-4-12.9-4c0,0-0.1,0-0.1,0c-5.2,0-10.5,1.8-15.2,5.1C196,191.7,195,192,194,192" id="XMLID_4819_"/><path class="st8" d="M319.5,161.3c-4.2-2.4-11-5.4-19.7-5.3c-8.6,0.1-15.2,2.9-19.2,5.3l-5.1-8.6    c5.1-3,13.5-6.6,24.3-6.7c11-0.1,19.6,3.6,24.8,6.7L319.5,161.3L319.5,161.3z" id="XMLID_4818_"/><polygon class="st9" id="XMLID_4817_" points="298,181 308,181 308,199 298,199 298,181   "/><polygon class="st9" id="XMLID_4816_" points="292,181 302,181 302,199 292,199 292,181   "/><path class="st8" d="M322,192h-4c-1,0-2-0.3-2.9-0.9c-4.7-3.3-9.9-5.1-15.2-5.1h-0.1c-5.6,0-9.8,2.3-12.9,4    c-1.2,0.6-2.2,1.2-3.2,1.5l-3.4-9.4c0.3-0.1,1.2-0.6,1.9-0.9c3.6-1.9,9.7-5.2,17.9-5.1c6.8,0,13.5,2.1,19.5,6h2.5V192L322,192z" id="XMLID_4815_"/></g><g id="XMLID_362_"><g id="XMLID_691_"><rect class="st10" height="10" id="XMLID_4667_" transform="matrix(0.7003 0.7138 -0.7138 0.7003 187.8642 -50.9134)" width="31.6" x="138.8" y="193.3"/></g><g id="XMLID_690_"><rect class="st10" height="31.6" id="XMLID_4666_" transform="matrix(0.7139 0.7003 -0.7003 0.7139 241.1293 -193.569)" width="10" x="352.4" y="182.5"/></g><g id="XMLID_678_"><path class="st10" d="M169,231c-29.5,0-43-20.7-43-39.9c0-21.5,28.1-26.1,35-26.1v10c-0.3,0-25,1.7-25,16.1     c0,13.8,8.6,29.9,33,29.9V231z" id="XMLID_4665_"/></g><g id="XMLID_677_"><path class="st10" d="M343,231v-10c24.4,0,33-16.1,33-29.9c0-14.4-24.8-16.1-25-16.1v-10c6.9,0,35,4.6,35,26.1     C386,210.3,372.5,231,343,231z" id="XMLID_4664_"/></g><g id="XMLID_1705_"><path class="st10" d="M419,512H166v-10h248v-76.8c0-21.3-12.5-40.9-31.8-49.8l-98.4-45.8     c-1.8-0.8-2.9-2.6-2.9-4.5v-28.7h10v25.5l95.5,44.5c22.8,10.6,37.5,33.8,37.5,58.9V507C424,509.8,421.8,512,419,512z" id="XMLID_4385_"/></g><g id="XMLID_369_"><path class="st10" d="M146,512H93c-2.8,0-5-2.2-5-5v-81.8c0-25.2,14.7-48.3,37.5-58.9l95.5-44.5v-25.5h10V325     c0,1.9-1.1,3.7-2.9,4.5l-98.4,45.8c-19.3,9-31.8,28.6-31.8,49.8V502h48V512z" id="XMLID_4384_"/></g><g id="XMLID_688_"><path class="st10" d="M256,262.1c-18.6,0-29.7-11.4-31.7-13.7l7.5-6.7c1,1.1,9.7,10.3,24.3,10.3     c0.1,0,0.2,0,0.3,0c14.1-0.1,22.4-8.6,23.9-10.3l7.5,6.7c-2,2.3-13,13.5-31.3,13.7C256.3,262.1,256.1,262.1,256,262.1z" id="XMLID_4383_"/></g><g id="XMLID_687_"><path class="st10" d="M192.5,161.3l-5.1-8.6c5.2-3.1,13.6-6.7,24.5-6.7c0.1,0,0.2,0,0.3,0     c10.8,0.1,19.1,3.7,24.3,6.7l-5.1,8.6c-4.1-2.4-10.7-5.3-19.2-5.3C203.4,155.9,196.7,158.9,192.5,161.3z" id="XMLID_4382_"/></g><g id="XMLID_686_"><rect class="st10" height="18" id="XMLID_4381_" width="10" x="204" y="181"/></g><g id="XMLID_685_"><rect class="st10" height="18" id="XMLID_4361_" width="10" x="210" y="181"/></g><g id="XMLID_684_"><path class="st10" d="M194,192h-4v-10h2.5c6-3.9,12.7-6,19.5-6c8.2,0,14.2,3.2,17.9,5.1     c0.7,0.4,1.6,0.8,1.9,0.9l-3.4,9.4c-1-0.4-2-0.9-3.2-1.5c-3.1-1.7-7.4-4-12.9-4c0,0-0.1,0-0.1,0c-5.2,0-10.5,1.8-15.2,5.1     C196,191.7,195,192,194,192z" id="XMLID_4360_"/></g><g id="XMLID_683_"><path class="st10" d="M319.5,161.3c-4.2-2.4-11-5.4-19.7-5.3c-8.5,0-15.2,2.9-19.2,5.3l-5.1-8.6     c5.1-3,13.5-6.6,24.3-6.7c11-0.1,19.6,3.6,24.8,6.7L319.5,161.3z" id="XMLID_4359_"/></g><g id="XMLID_681_"><rect class="st10" height="18" id="XMLID_4358_" width="10" x="298" y="181"/></g><g id="XMLID_680_"><rect class="st10" height="18" id="XMLID_4357_" width="10" x="292" y="181"/></g><g id="XMLID_679_"><path class="st10" d="M322,192h-4c-1,0-2-0.3-2.9-0.9c-4.7-3.3-9.9-5.1-15.2-5.1c0,0-0.1,0-0.1,0     c-5.6,0-9.8,2.3-12.9,4c-1.2,0.6-2.2,1.2-3.2,1.5l-3.4-9.4c0.3-0.1,1.2-0.6,1.9-0.9c3.6-1.9,9.7-5.2,17.9-5.1     c6.8,0,13.5,2.1,19.5,6h2.5V192z" id="XMLID_4356_"/></g><g id="XMLID_741_"><path class="st10" d="M256,313c-0.5,0-0.9-0.1-1.3-0.2c-2.1-0.6-51.9-14.8-73.7-44.2     c-21.3-28.7-24.8-95.6-25-98.4c-0.1-1.4,0.4-2.7,1.4-3.7s2.3-1.6,3.6-1.6c41.4,0,116.7-75.7,117.4-76.5c1.2-1.2,2.8-1.7,4.5-1.4     c1.6,0.3,3,1.4,3.7,2.9c9.1,20.9,38.4,75,64.4,75c1.4,0,2.7,0.6,3.6,1.6s1.4,2.3,1.4,3.7c-0.1,2.8-3.7,69.7-25,98.4     c-21.8,29.4-71.6,43.6-73.7,44.2C256.9,312.9,256.5,313,256,313z M166.3,174.7c1.2,15.9,6.3,65.9,22.7,88     c17.9,24.1,59,37.6,67,40.1c8-2.4,49.1-16,67-40.1c16.4-22.2,21.5-72.5,22.7-88.2c-14.8-2.7-30.4-16.3-46.5-40.8     c-8.6-13-15.1-25.8-18.7-33.2C263,117.4,205.7,170.1,166.3,174.7z" id="XMLID_3976_"/></g><g id="XMLID_734_"><path class="st10" d="M256,374.7c-43.4,0-68.7-28.4-69.8-29.6l7.5-6.6c0.2,0.3,23.5,26.2,62.2,26.2     s62-25.9,62.2-26.2l7.5,6.6C324.7,346.3,299.4,374.7,256,374.7z" id="XMLID_3948_"/></g><g id="XMLID_928_"><path class="st10" d="M224,408.5c-0.5,0-1-0.1-1.5-0.2c-27-8.3-39.6-24-45.4-35.8c-6.4-12.9-6.2-23.8-6.2-24.3     l10,0.2l-5-0.1l5,0.1c0,1.5,0,35.1,41.6,49.3l29.8-31.5l7.3,6.9l-32,33.8C226.7,407.9,225.4,408.5,224,408.5z" id="XMLID_3947_"/></g><g id="XMLID_689_"><path class="st10" d="M288,408.5c-1.4,0-2.7-0.6-3.6-1.6l-32-33.8l7.3-6.9l29.8,31.5     c22.6-7.7,32.7-21.3,37.3-31.5l9.1,4.1c-5.6,12.5-18.2,29.3-46.4,37.9C289,408.4,288.5,408.5,288,408.5z" id="XMLID_3946_"/></g><g id="XMLID_2354_"><path class="st10" d="M362.3,364.8l-2.5-9.7l1.2,4.8l-1.2-4.8c0.2-0.1,21.5-5.8,28.8-24.9     c9.6-25.1-10.3-44.8-11.1-45.6c-1.2-1.1-1.7-2.8-1.5-4.4c0.3-1.6,1.3-3,2.8-3.7c1.4-0.7,35.1-16.8,35.1-64.9     c0-32.5-29.3-51.1-29.6-51.3c-1.4-0.9-2.3-2.4-2.4-4c-0.1-1.7,0.7-3.2,2-4.2c0.7-0.6,18.4-14.4,11.1-41.5     c-5.6-20.8-30.8-25.9-31.1-25.9c-2.6-0.5-4.4-2.9-4-5.5c0.1-1,2.9-26.1-17.1-41.4c-20-15.3-56.5,1.7-56.8,1.9     c-2.4,1.1-5.2,0.2-6.5-2.1C279,36.4,263.5,10,230,10c-33,0-43.9,25.8-44.4,26.9c-0.8,1.9-2.7,3.2-4.8,3.1     c-0.3,0-31.9-0.6-45.7,20.3c-13.5,20.4,2.4,45.3,2.5,45.5c0.8,1.2,1,2.8,0.6,4.2c-0.4,1.4-1.4,2.6-2.8,3.1     C135.1,113.2,98,130,98,159c0,30.6,19.4,56,19.6,56.2c0.8,1.1,1.2,2.4,1,3.7c-0.2,1.3-0.9,2.5-1.9,3.3     c-0.7,0.6-17.9,14.3-11.5,41.7c6.5,27.7,38.9,34,39.2,34.1c1.9,0.3,3.4,1.7,3.9,3.6s0,3.8-1.5,5.1c-0.1,0.1-9.6,9-9.3,21.5     c0.2,9.4,5.8,18.8,16.6,27.9l-6.4,7.6c-13.1-11.1-19.9-23-20.1-35.5c-0.2-9.7,3.7-17.5,7.2-22.6c-11.8-4-33.4-14.7-39.3-39.5     c-6.1-25.9,5.4-42.1,11.6-48.7C101.3,208.9,88,186.1,88,159c0-28.7,27.2-46.4,38.6-52.6c-4.8-9.6-13-31.6,0.2-51.6     c14.1-21.3,41.5-24.3,51-24.7C182.2,21.8,197,0,230,0c31.7,0,49.7,20.2,55.9,28.8C297,24.3,328.5,14,349,29.7     c19.4,14.8,21.3,36.8,21.2,46.1c8.9,2.7,28.9,10.9,34.6,32.1c6.5,24.4-3.5,40.3-10,47.6c9.6,7.6,29.2,26.8,29.2,56.1     c0,42.7-23.9,63.4-35.2,70.7c6.8,8.7,18.2,28,9.2,51.5C388.8,357.9,363.4,364.6,362.3,364.8z" id="XMLID_3016_"/></g></g></g></svg>